<?xml version="1.0" encoding="UTF-8"?>
<svg id="Laag_2" data-name="Laag 2" xmlns="http://www.w3.org/2000/svg" viewBox="0 0 348.62 290.07">
  <defs>
    <style>
      .cls-1 {
        fill: #efdcd8;
      }
    </style>
  </defs>
  <g id="Laag_1-2" data-name="Laag 1">
    <g>
      <g>
        <path class="cls-1" d="M167.88,189.44c0,25.9-17.63,46.85-39.41,46.85s-39.54-20.94-39.54-46.85,17.63-46.85,39.54-46.85,39.41,20.95,39.41,46.85ZM150.52,213.73c0-26.52-23.11-60.6-35.67-60.6-5.75,0-8.55,5.82-8.55,14.25,0,26.52,22.98,60.73,35.8,60.73.8,0,1.74-.12,2.54-.5,3.87-1.61,5.88-6.69,5.88-13.88Z"/>
        <path class="cls-1" d="M259.69,189.44c0,25.9-17.63,46.85-39.41,46.85s-39.54-20.94-39.54-46.85,17.63-46.85,39.54-46.85,39.41,20.95,39.41,46.85ZM242.32,213.73c0-26.52-23.11-60.6-35.67-60.6-5.75,0-8.55,5.82-8.55,14.25,0,26.52,22.98,60.73,35.8,60.73.8,0,1.74-.12,2.54-.5,3.87-1.61,5.88-6.69,5.88-13.88Z"/>
        <path class="cls-1" d="M23.88,143.96l35.29,69.9c1.34,2.65,5.63,1.77,5.63-1.16h0c0-20.18-4.29-30.21-12.04-43.49-5.11-8.77-6.27-16.17-6.27-20.93,0-1.39.09-2.56.2-3.48.17-1.38,1.44-2.41,2.93-2.41h20.62c1.63,0,2.95,1.23,2.95,2.74v88.64c0,1.51-1.32,2.74-2.95,2.74h-24.53c-1.14,0-2.18-.61-2.67-1.56l-31.24-60.91c-1.31-2.56-5.46-1.81-5.62,1.02-.06,1.16-.1,2.39-.1,3.68,0,8.52,1.65,19.05,9.07,25.82,9.56,8.77,11.05,20.55,11.05,27.2,0,.81-.03,1.55-.06,2.18-.09,1.45-1.38,2.58-2.95,2.58H2.95c-1.63,0-2.95-1.23-2.95-2.74v-88.64c0-1.51,1.32-2.74,2.95-2.74h18.25c1.15,0,2.19.62,2.68,1.58Z"/>
        <path class="cls-1" d="M299.29,144.96l35.29,69.9c1.34,2.65,5.63,1.77,5.63-1.16h0c0-20.18-4.29-30.21-12.04-43.49-5.11-8.77-6.27-16.17-6.27-20.93,0-1.39.09-2.56.2-3.48.17-1.38,1.44-2.41,2.93-2.41h20.62c1.63,0,2.95,1.23,2.95,2.74v88.64c0,1.51-1.32,2.74-2.95,2.74h-24.53c-1.14,0-2.18-.61-2.67-1.56l-31.24-60.91c-1.31-2.56-5.46-1.81-5.62,1.02-.06,1.16-.1,2.39-.1,3.68,0,8.52,1.65,19.05,9.07,25.82,9.56,8.77,11.05,20.55,11.05,27.2,0,.81-.03,1.55-.06,2.18-.09,1.45-1.38,2.58-2.95,2.58h-20.25c-1.63,0-2.95-1.23-2.95-2.74v-88.64c0-1.51,1.32-2.74,2.95-2.74h18.25c1.15,0,2.19.62,2.68,1.58Z"/>
        <path class="cls-1" d="M149.97,13.91c.46.29.95.54,1.45.75-.34,0-.68,0-1.02.03-.65.06-1.43.16-2,.52-.62.39-.8,1.23-.54,1.89.23.59.8,1.04,1.28,1.43.54.45,1.15.84,1.83,1.06.35.12.72.18,1.08.21-.47.38-.87.85-1.05,1.42-.31.98.24,1.98,1.19,2.31.47.16.98.17,1.47.15.52-.02,1.05-.05,1.57-.09.98-.08,1.97-.21,2.93-.4-.54.18-1.07.36-1.6.55-.44.16-.88.32-1.3.53-.43.2-.76.48-.83.97-.12.83.74,1.32,1.39,1.6.75.32,1.58.36,2.38.28,1.6-.17,3.09-.91,4.27-1.99.61-.56,1.16-1.22,1.61-1.92.07-.11.14-.22.21-.33.02.07.04.14.06.21.16.49.48.91.91,1.2.36.25.79.39,1.22.39,0,.02.01.05.02.08.2.46.33.95.45,1.44.54,2.1,1.25,4.15,1.81,6.25.53,1.99,1.03,4,1.43,6.02.41,2.03.74,4.09.91,6.15.18,2.09.17,4.18.07,6.28-.01.26-.03.51-.04.77-.04-.2-.09-.39-.14-.59-.43-1.75-.99-3.5-1.78-5.12-.8-1.64-1.99-3.01-2.97-4.54-.51-.8-1.03-1.61-1.61-2.36-.58-.74-1.2-1.45-1.75-2.21-.53-.73-.95-1.51-1.34-2.32-.19-.41-.4-.81-.6-1.21-.21-.4-.42-.8-.73-1.14-.25-.27-.78-.11-.76.28.04,1.27.08,2.55.21,3.81.12,1.25.36,2.47.65,3.69.26,1.09.51,2.18.75,3.27.24,1.11.48,2.22.81,3.31.32,1.05.69,2.09,1.21,3.06.53.99,1.23,1.9,1.95,2.76.76.9,1.58,1.72,2.44,2.53.74.69,1.56,1.38,2.14,2.22.25.37.45.78.57,1.21.1.36.18.73.23,1.1-.18,1.5-.37,2.99-.56,4.49-.19,1.47-.36,2.94-.53,4.4-.08,1.05-.22,2.09-.39,3.14,0,.33,0,.66,0,.98,0,.42-.06.84-.11,1.25,0,0,0,.02,0,.03,0,.1-.01.21-.02.31.04.78.06,1.55-.06,2.33-.02.1-.03.21-.05.31,0,.09,0,.18,0,.27,0,.4-.01.79-.01,1.19,0,.09,0,.18,0,.26,0,.04,0,.09,0,.13,0,0,0,0,0,0,0,.12,0,.23,0,.35.1.52.1,1.03.01,1.53.02,3.18.12,10.93.13,14.11,0,.57.81,1.68.8,1.11,0-.54.07-2.15.07-2.69-.02-1.73-.06-3.46-.09-5.2-.06-.4-.09-5.37-.08-5.79.01-.35.04-.69.05-1.04,0-.18.02-.36.05-.54-.01-.24-.02-.48-.01-.72,0-.25.02-.49.04-.74,0-.19-.02-.37-.02-.56-.03-.24-.04-.48-.03-.72,0-.07,0-.14,0-.2,0-.04.01-.07.02-.1,0-.03,0-.07,0-.1.01-.14.03-.29.05-.43,0,.01,0,.02-.01.03-.02.06-.04.12-.06.19.01-.58.03-1.16.05-1.75.14-3.78.63-7.54,1.12-11.29.03-.03.06-.08.07-.14.04-.2.09-.39.13-.58.19-.06.3-.26.29-.46.33-.22.68-.42,1.03-.59.23-.12.45-.23.69-.3.25-.07.5-.16.74-.26.98-.42,1.94-.92,2.85-1.47,1.69-1.01,3.26-2.3,4.63-3.71,1.46-1.48,2.56-3.22,3.7-4.94,1.12-1.68,2.35-3.41,4.05-4.57.84-.57,1.74-1.03,2.63-1.53.9-.51,1.82-.98,2.69-1.54.16-.1.27-.28.22-.48-.04-.18-.22-.35-.41-.34-1.22.04-2.45-.03-3.67.01-1.16.05-2.29.23-3.4.55-1.85.54-3.58,1.43-5.17,2.53-1.71,1.19-3.29,2.58-4.71,4.1-1.57,1.69-2.97,3.55-4.07,5.58-.03.06-.07.13-.1.19.32-.98.64-1.95.98-2.92,1.11-3.16,2.22-6.33,3.55-9.41.37-.86.76-1.7,1.18-2.54.1,0,.21-.06.28-.17.24-.38.49-.74.72-1.13.21-.36.43-.72.71-1.03.26-.28.53-.55.84-.78.29-.22.63-.28.98-.35.8-.16,1.59-.43,2.37-.66.82-.24,1.63-.48,2.44-.74,1.63-.52,3.22-1.12,4.82-1.72,1.58-.6,3.16-1.18,4.78-1.66.83-.25,1.67-.49,2.52-.71.35-.09.71-.17,1.07-.26.33-.08.69-.19.93-.45.19-.2.16-.47-.06-.64-.76-.57-1.65-.91-2.56-1.14-.84-.22-1.7-.37-2.56-.46-1.51-.15-3.04-.1-4.53.14-1.41.22-2.77.75-4.03,1.42-1.26.67-2.43,1.49-3.59,2.32-.2.14-.39.28-.59.43.23-.44.45-.88.65-1.33,0,0,0,0,0,0,1.31-2.03,2.68-4.03,4.16-5.93,1.03-1.32,2.17-2.51,3.36-3.68.98-.96,1.99-1.91,2.93-2.92.17.15.36.27.53.4.24.17.48.33.73.49,1.04.67,2.09,1.35,3.26,1.76.52.18,1.1.34,1.66.33.28,0,.56-.06.83-.11.26-.06.43-.21.55-.43.21-.23.26-.52.13-.82-.12-.27-.24-.54-.44-.77-.41-.46-1-.8-1.56-1.04-1.04-.46-2.2-.54-3.33-.63.3-.07.6-.15.89-.26.89-.32,1.76-.74,2.59-1.21,1.5-.86,2.86-1.96,4.07-3.19,1.24-1.26,2.38-2.67,3.26-4.21.84-1.46,1.39-3.04,1.85-4.65.42-1.5.74-3.05.55-4.62-.02-.16-.17-.27-.3-.32-.29-.11-.61-.07-.91-.02-.29.05-.58.08-.87.13-.64.11-1.27.29-1.89.5-1.28.44-2.45,1.07-3.58,1.81-1.03.67-1.98,1.4-2.81,2.3-.82.88-1.53,1.85-2.17,2.86-1.27,1.98-2.28,4.18-2.81,6.48-.31-.87-.75-1.7-1.35-2.41-.33-.39-.69-.8-1.17-1-.29-.12-.62-.22-.87.02-.16.16-.29.36-.36.57-.13.46-.05.97.07,1.42.12.46.28.92.44,1.37.34.91.79,1.78,1.33,2.58.38.55.79,1.13,1.27,1.62,0,.12,0,.24.02.35-.13.13-.27.25-.4.38-1.23,1.17-2.47,2.34-3.67,3.54-1.16,1.17-2.21,2.44-3.2,3.76.25-.66.48-1.33.68-2.01.38-1.26.67-2.56.93-3.85.26-1.28.47-2.58.53-3.89.06-1.34-.04-2.7-.15-4.03-.06-.69-.11-1.38-.2-2.07-.08-.62-.25-1.23-.29-1.86-.01-.2-.13-.37-.33-.4-.19-.03-.4.08-.45.28-.13.52-.33,1.02-.5,1.52-.17.51-.32,1.03-.48,1.55-.3,1-.64,1.99-.98,2.98-.3.89-.59,1.78-.84,2.69-.24.89-.46,1.8-.53,2.72-.06.89,0,1.78.02,2.67.03.96-.03,1.92-.03,2.89,0,.9,0,1.79-.11,2.68-.06.45-.11.9-.23,1.34-.1.4-.34.75-.42,1.17-.04.22-.07.45-.15.66-.02.04-.03.09-.05.13-.74,1.15-1.46,2.32-2.17,3.49-.88,1.47-1.74,2.96-2.53,4.49-.77,1.5-1.46,3.05-2.1,4.61-1.27,3.13-2.36,6.34-3.41,9.55-.54,1.67-1.05,3.34-1.51,5.03.39-3.32.71-6.64.78-9.98.04-1.77-.04-3.53-.23-5.29.01-.02.02-.05.03-.07.07-.15.12-.32.17-.48s.09-.33.13-.49c.13.02.27-.03.36-.18.99-1.64,1.85-3.37,2.45-5.19,1.07-3.25,1.63-6.64,2.58-9.92.24-.81.52-1.61.86-2.38.34-.77.72-1.53,1.1-2.28.32-.65.6-1.32.95-1.94.26-.45.64-1.02.59-1.56-.03-.31-.32-.57-.64-.4-.46.24-.84.57-1.16.97-.32.4-.69.77-1.04,1.14-.76.78-1.51,1.55-2.17,2.42-1.13,1.48-2.07,3.12-2.94,4.77-.86,1.63-1.63,3.32-2.1,5.1-.24.91-.41,1.84-.5,2.79-.42-1.83-.88-3.64-1.4-5.44-.31-1.08-.66-2.15-.99-3.23-.29-.96-.47-1.95-.9-2.86.31-.15.57-.39.78-.69.12-.18.21-.37.27-.57,0-.02.01-.04.02-.05,0-.01,0-.02,0-.03.02-.07.03-.13.04-.2,0-.01,0-.02,0-.03,0-.03,0-.05,0-.08.03-.27.03-.55,0-.83-.07-.59-.31-1.08-.64-1.57,1.78-1.59,3.37-3.45,4.6-5.5.55-.91,1.04-1.86,1.41-2.85.33-.87.64-1.85.63-2.79,0-.66-.21-1.64-.94-1.87-.43-.13-.83.1-1.14.37-.36.32-.65.72-.92,1.12-.4.57-.74,1.17-1.03,1.8.09-.29.17-.58.26-.88.36-1.18.71-2.36.68-3.61-.03-1-.29-2.26-1.19-2.85-.36-.23-.78-.22-1.16-.07-.12-.17-.22-.36-.34-.53-.27-.38-.54-.77-.83-1.13-.48-.6-1.03-1.18-1.74-1.49-.32-.14-.68-.23-1.03-.17-.33.05-.62.24-.87.46-.55.5-1.08,1.14-1.22,1.89-.09.44-.1.9-.08,1.36-.27-.45-.58-.89-.9-1.31-.5-.64-1.24-1.34-2.11-1.29-.82.04-1.5.67-1.89,1.36-.43.79-.58,1.69-.49,2.59,0,.04.01.09.02.13-.2-.26-.42-.5-.65-.73-.83-.82-1.85-1.5-3.07-1.37-.56.06-1.08.3-1.43.74-.36.46-.39,1.06-.31,1.62.08.57.29,1.14.51,1.68.14.36.31.71.49,1.05-.3-.23-.61-.43-.93-.61-.58-.33-1.19-.61-1.85-.69-.68-.09-1.36.14-1.92.53-.55.39-1,.98-1.16,1.64-.15.63-.05,1.25.18,1.85.49,1.23,1.53,2.31,2.64,3.01ZM195.78,19.7c.56.09,1.14.08,1.69.14.99.1,1.97.28,2.82.82.33.21.66.44.81.81.01.03.03.11.05.17-.02.03-.05.06-.07.08,0,0-.02,0-.03,0-.11,0-.24.06-.36.07-.4.06-.81-.03-1.2-.14-.48-.13-.95-.33-1.39-.56-.8-.41-1.58-.89-2.32-1.4ZM195.1,17.58c.17-.1.33-.21.5-.3.74-.43,1.47-.88,2.2-1.34,1.26-.81,2.52-1.64,3.66-2.62,1.16-.99,2.15-2.15,3.03-3.39.9-1.28,1.71-2.62,2.44-4,.66-1.24,1.46-2.41,2.09-3.67-.08,1.18-.4,2.36-.74,3.49-.47,1.57-1.07,3.07-1.95,4.46-.9,1.42-2.01,2.73-3.23,3.89-1.18,1.13-2.49,2.12-3.95,2.87-.71.37-1.45.73-2.21.96-.59.18-1.21.22-1.82.31,0-.21-.01-.43-.03-.64ZM207.58,3.92c-.46.75-.88,1.53-1.3,2.3-.74,1.38-1.59,2.71-2.52,3.97-.93,1.24-1.99,2.35-3.21,3.31-1.21.95-2.51,1.77-3.81,2.6-.5.32-1.02.6-1.53.91.72-.92,1.4-1.88,2.08-2.84.9-1.28,1.8-2.56,2.73-3.81.96-1.28,2.05-2.44,3.19-3.55,1.11-1.08,2.26-2.1,3.48-3.05.55-.43,1.11-.87,1.71-1.24,0,0,0,0,0,0-.26.48-.54.95-.82,1.42ZM195.04,16.5c.09-.6.19-1.21.33-1.8.23-.99.55-1.96.95-2.9.78-1.86,1.84-3.63,3.09-5.2,1.26-1.58,2.86-2.78,4.62-3.76.86-.48,1.75-.86,2.69-1.13.48-.14.97-.25,1.46-.33.21-.03.42-.06.63-.09.07-.01.15-.02.22-.03,0,.09.01.17.01.26-.07-.01-.15.01-.19.11-.02.04-.04.09-.06.13-.3.22-.65.4-.93.59-.69.47-1.35.99-2,1.52-1.21.98-2.35,2.02-3.45,3.12-1.1,1.1-2.13,2.27-3.05,3.53-.92,1.26-1.82,2.53-2.72,3.81-.52.74-1.05,1.48-1.6,2.2ZM194.13,16.65c-.04.27-.07.56-.11.84-.05-.06-.1-.12-.14-.18-.68-.88-1.25-1.82-1.67-2.86-.2-.48-.37-.98-.5-1.48-.07-.26-.13-.52-.12-.78,0-.13.01-.22.04-.29.21.09.37.24.55.43.23.24.45.48.64.76.36.53.65,1.13.87,1.73.22.6.36,1.21.44,1.84ZM184.94,19.9c.11-.91.37-1.81.62-2.68.26-.9.56-1.79.87-2.68.3-.9.59-1.8.86-2.71.11-.36.22-.73.33-1.09.02.13.04.26.06.39.09.75.16,1.5.23,2.26.12,1.33.2,2.67.11,4-.08,1.27-.3,2.53-.56,3.78-.27,1.3-.57,2.6-.97,3.87-.4,1.25-.87,2.47-1.36,3.69.07-.63.15-1.25.26-1.87.26-1.56.66-3.1.94-4.66.27-1.55.39-3.12.54-4.68.02-.22-.34-.28-.38-.06-.15.87-.23,1.76-.32,2.64-.08.8-.18,1.59-.34,2.38-.15.78-.34,1.55-.5,2.32-.17.83-.33,1.66-.46,2.5.02-.61.01-1.23.02-1.85.01-.96.04-1.91,0-2.86-.04-.9-.08-1.8.03-2.7ZM180.76,37.31c.09-.16.19-.33.29-.49.14,0,.29-.07.37-.19.18-.29.37-.58.55-.87.3-.35.65-.65,1-.93.61-.49,1.26-.93,1.89-1.38,1.09-.79,2.22-1.51,3.43-2.1,1.23-.6,2.51-1,3.87-1.18,1.41-.18,2.84-.17,4.25,0,.73.09,1.45.23,2.16.43.52.14,1.02.32,1.48.58-.13.03-.26.05-.38.08-.45.1-.9.22-1.35.34-.95.25-1.89.52-2.83.82-1.64.52-3.25,1.12-4.86,1.73-1.59.6-3.19,1.14-4.81,1.63-.81.25-1.63.48-2.45.72-.15.04-.3.09-.46.13,1.25-.72,2.41-1.61,3.73-2.2,1.41-.63,2.9-1.06,4.35-1.57.27-.09.17-.52-.1-.43-.83.29-1.67.56-2.5.85-.73.25-1.46.53-2.16.85-.67.31-1.3.71-1.93,1.11-.63.41-1.26.82-1.92,1.17-.3.16-.61.31-.9.5-.06.04-.12.08-.18.12-.06.02-.12.04-.19.07-.13.06-.25.13-.37.22ZM171.33,61.68c.02-.06.03-.12.05-.18.18-.13.33-.3.48-.44.4-.4.83-.77,1.23-1.17.83-.83,1.69-1.63,2.51-2.47.85-.86,1.69-1.73,2.51-2.62,1.62-1.76,3.2-3.56,4.8-5.34.19-.21-.11-.54-.3-.33-.88.99-1.76,1.98-2.64,2.97-1.56,1.75-3.14,3.48-4.8,5.13-.82.82-1.66,1.62-2.49,2.44-.35.34-.72.66-1.06,1,.2-.44.39-.89.58-1.33.53-1.19,1.07-2.37,1.73-3.5,1.16-1.98,2.56-3.79,4.17-5.43,1.38-1.41,2.89-2.72,4.54-3.8,1.59-1.04,3.32-1.87,5.17-2.32.99-.24,1.98-.35,2.99-.37.55,0,1.1,0,1.65,0-.55.31-1.1.6-1.65.91-1,.56-2.03,1.09-2.93,1.81-1.64,1.3-2.86,3.08-4,4.81-.58.88-1.16,1.77-1.79,2.62-.59.79-1.26,1.52-1.98,2.2-1.41,1.35-2.96,2.57-4.68,3.5-.41.22-.83.43-1.26.63-.42.2-.83.43-1.28.57-.54.16-1.07.4-1.56.69ZM170.62,55.17c-.05-.28-.12-.56-.19-.84-.3-1.07-.78-2.09-1.3-3.07-.56-1.04-1.21-2-1.9-2.95-.69-.97-1.33-1.95-1.83-3.03-.5-1.08-.92-2.2-1.45-3.27-.1-.21-.41-.04-.32.17.53,1.21.97,2.45,1.54,3.64.5,1.04,1.15,1.98,1.82,2.91.69.96,1.34,1.95,1.89,3,.5.97.95,1.96,1.21,3.02.16.65.25,1.3.31,1.96-.09-.15-.19-.29-.3-.43-.68-.87-1.55-1.59-2.35-2.34-.83-.79-1.61-1.62-2.33-2.5-.69-.85-1.32-1.74-1.79-2.73-.46-.97-.8-2-1.08-3.03-.29-1.08-.52-2.18-.75-3.27-.24-1.12-.53-2.23-.78-3.35-.24-1.06-.42-2.13-.51-3.21-.05-.55-.08-1.11-.1-1.66.19.38.37.76.56,1.15.46.93,1.02,1.78,1.65,2.61.56.74,1.18,1.43,1.72,2.17.53.73.98,1.5,1.49,2.24.5.74,1.06,1.45,1.56,2.19.5.73.94,1.5,1.3,2.31.36.8.66,1.63.93,2.47.27.86.52,1.72.71,2.6.18.84.3,1.68.3,2.54,0,.24-.01.48-.02.72ZM172.07,33.06c.5-1.71,1.27-3.32,2.12-4.88.89-1.63,1.83-3.25,3-4.7.59-.73,1.26-1.37,1.9-2.05.12-.13.25-.26.38-.39-.34.68-.66,1.38-.99,2.06-.38.77-.74,1.54-1.06,2.34-.31.79-.56,1.6-.78,2.42-.44,1.63-.81,3.27-1.2,4.91-.39,1.63-.79,3.27-1.34,4.86-.52,1.48-1.21,2.88-2,4.22-.03,0-.06,0-.09,0,.19-.89.39-1.79.59-2.68.36-1.59.72-3.19,1.19-4.75.46-1.54,1.03-3.05,1.55-4.57.08-.23-.27-.33-.36-.11-.33.85-.66,1.7-.96,2.57-1.02,2.9-1.68,5.92-2.32,8.92-.01-.12-.03-.23-.04-.35-.15-.92-.26-1.83-.26-2.76,0-1.7.21-3.41.69-5.04ZM156.95,8.71c.11.51.3,1.01.5,1.49.68,1.59,1.69,2.96,2.76,4.3-.92-.76-1.87-1.48-2.86-2.14-.4-.27-.81-.53-1.23-.78.05-.13.02-.29-.07-.41-.73-.99-1.52-1.95-2.13-3.02-.27-.47-.5-.96-.69-1.47-.17-.46-.34-.96-.39-1.45-.04-.41.03-.81.38-1.04.33-.22.78-.25,1.16-.19.98.15,1.8.98,2.41,1.71.34.4.57.86.84,1.31-.16.04-.31.11-.44.25-.37.38-.35.97-.24,1.45ZM157.83,7.88s.08,0,.08,0c.03,0,.06.01.08.02.07.02.14.05.21.08,0,0,0,0,0,0,.06.03.11.06.17.09.06.03.12.07.17.1.05.11.16.18.28.19.39.28.74.6,1.07.94.72.74,1.33,1.59,1.87,2.47.55.89,1.06,1.81,1.46,2.77.4.95.72,1.93,1.04,2.91.13.38.26.75.39,1.13-.18-.23-.37-.47-.56-.7-.8-.99-1.61-1.96-2.4-2.95-.65-.81-1.32-1.6-1.93-2.44-.59-.81-1.09-1.68-1.49-2.6-.19-.43-.35-.86-.45-1.31-.04-.19-.09-.4-.04-.6,0-.03.02-.05.03-.08,0,0,.02,0,0,0,0,0,0,0,0,0,.03,0,.02,0,.01,0,0,0,0,0,0,0ZM162.77,4.95c-.32.23-.55.59-.7.94-.19.47-.25,1-.25,1.5,0,1.31.29,2.6.67,3.87-.16-.25-.32-.5-.49-.74-.65-.95-1.38-1.83-2.26-2.57-.18-.15-.43-.35-.7-.53.02-.07,0-.15-.04-.24-.4-.75-.78-1.51-.82-2.38-.03-.74.13-1.47.53-2.1.28-.45.79-.94,1.37-.86.75.11,1.31.89,1.72,1.46.24.34.47.68.67,1.05.1.19.2.38.3.57,0,0,0,.02.01.03ZM166.94,20.11c.14-.2.26-.42.38-.63.29-.5.56-1,.84-1.5.56-1.01,1.07-2.04,1.49-3.12.71-1.82,1.3-3.73,2.41-5.36.24-.35.48-.72.8-1.01.12-.11.24-.19.36-.23,0,0,0,0,0,0,.01,0,.03.02.03.01,0,0,0,0,0,0,.02.02.04.04.04.04.05.06.12.19.15.26.05.14.08.29.11.44.05.37,0,.76-.08,1.12-.39,1.87-1.29,3.6-2.35,5.18-1.11,1.66-2.45,3.17-3.94,4.5-.12.1-.15.23-.14.34,0,0,0,0-.01,0-.03-.02-.07-.03-.1-.05ZM166.55,13.68c.05-.44.09-.89.14-1.33.14-1.23.3-2.47.53-3.69.22-1.19.47-2.44,1.06-3.52.21-.39.48-.87.89-1.08.14-.07.34-.14.49-.08.19.08.34.27.45.43.55.83.55,1.95.43,2.9-.07.57-.23,1.13-.39,1.68-.18.61-.36,1.21-.54,1.82-.36,1.23-.75,2.45-1.21,3.65-.46,1.19-.81,2.42-1.32,3.59-.23.51-.5,1-.76,1.5-.03.06-.06.12-.09.18v-.39c.04-.27.07-.53.1-.79.07-.64.11-1.27.14-1.91.05-.99.08-1.98.08-2.96ZM166.39,8.87c-.15-.9-.47-1.79-.94-2.57-.38-.63-1.02-1.5-1.82-1.58-.03-.38-.05-.77-.04-1.15,0-.36,0-.74.09-1.09.14-.58.6-1.1,1.05-1.47.17-.14.37-.26.6-.25.27.01.53.13.76.27.56.34.99.85,1.38,1.36.22.28.43.57.63.86.1.15.19.3.29.45,0,0,0,.01.01.02-.34.31-.61.72-.82,1.12-.63,1.15-.9,2.47-1.14,3.75-.02.1-.03.19-.05.29ZM165.06,16.56c-.34-1.18-.73-2.34-1.1-3.51-.32-.99-.64-1.98-.89-2.99-.23-.92-.42-1.88-.4-2.83.01-.55.25-1.98,1.07-1.64.39.16.68.56.91.91.26.4.48.82.65,1.26.37.95.46,1.93.49,2.94.03.79.04,1.58.03,2.38-.12,1.14-.22,2.28-.27,3.43-.02.59-.04,1.18-.05,1.77-.13-.57-.28-1.14-.44-1.7ZM164.15,19.89c-.63-.31-1.29-.54-1.95-.8-1.13-.44-2.18-1.07-3.22-1.67-1.07-.62-2.12-1.29-3.14-2-.99-.69-1.99-1.4-2.84-2.26-.37-.38-.74-.79-1-1.25-.12-.22-.22-.47-.25-.72-.02-.17-.02-.23.08-.29.14,0,.28-.02.41,0,.14,0,.29.06.44.09.3.07.59.15.88.26.58.22,1.12.52,1.66.82,2.03,1.16,3.94,2.57,5.65,4.16.86.8,1.67,1.64,2.49,2.48.41.42.82.83,1.22,1.26.08.08.16.17.23.25-.23-.1-.45-.22-.67-.33ZM158.1,24.16c.79-.27,1.58-.56,2.37-.83.76-.25,1.52-.41,2.31-.57.23-.05.45-.1.67-.16-.12.2-.25.39-.39.58-.46.63-1.01,1.21-1.63,1.7-1.05.83-2.39,1.38-3.74,1.41-.67.01-1.35-.1-1.93-.46-.13-.08-.27-.18-.34-.25-.02-.02-.04-.04-.06-.07,0,0,0,0-.01-.01t0,0s-.01-.02-.02-.03c0-.01,0-.06,0-.03.01-.09.02-.17.12-.24.13-.09.3-.15.44-.22.72-.32,1.47-.56,2.22-.81ZM152.14,20.96c.41-.54,1.09-.96,1.76-1.16.06-.02.12-.03.19-.05.32-.02.65-.04.97-.05.7,0,1.39.02,2.09.07.71.07,1.42.14,2.12.21,1.01.1,2,.27,2.98.53.47.13.94.27,1.41.4-.19.06-.39.12-.59.18-.58.16-1.16.31-1.75.45-1.13.28-2.27.57-3.42.8-.96.19-1.94.31-2.91.38-.49.04-.99.07-1.48.08-.39,0-.82,0-1.18-.17-.31-.15-.52-.49-.52-.81,0-.33.13-.58.34-.86ZM151.36,15.55c.69.03,1.38.07,2.07.14.31.03.61.07.92.15.22.06.44.12.66.06.12.09.25.18.37.26,1.04.72,2.11,1.4,3.21,2.04.62.36,1.25.72,1.89,1.05-.73-.11-1.47-.18-2.2-.25-1.64-.15-3.41-.53-4.98.08-.72.03-1.44.01-2.12-.24-.58-.22-1.11-.6-1.58-1-.23-.21-.46-.42-.67-.65-.14-.16-.27-.32-.31-.53-.04-.2,0-.47.14-.63.16-.18.5-.26.73-.31.62-.15,1.24-.19,1.87-.17ZM150.15,13.01c-.88-.63-1.76-1.59-2.08-2.62-.15-.48-.17-.94.03-1.4.23-.51.68-.91,1.19-1.11,1.04-.42,2.21.32,3.05.91.59.41,1.03.93,1.45,1.51.03.05.07.09.1.14-.21-.08-.41-.16-.63-.21-.29-.07-.61-.18-.91-.2-.33-.03-.73-.02-1.01.16-.23.15-.39.37-.45.63-.12.56.12,1.18.41,1.66.31.5.7.96,1.12,1.38.22.22.46.43.7.64-1.04-.4-2.07-.82-2.98-1.47Z"/>
        <path class="cls-1" d="M170.82,126.57c.6.57,1.21,1.13,1.95,1.51.35.18.72.33,1.07.53.05.03.11.06.16.1.01.01.06.05.07.06.11.1.22.2.34.3.08.07.17.15.27.21.02,2.41-.07,4.82-.33,7.23-.19,1.79-.47,3.58-.78,5.36.32-.04.65-.02.98.02.21-1.16.4-2.32.57-3.49.7-4.89.69-9.86.33-14.78-.31-4.3-.74-8.62-1.62-12.85,0-.02-.01-.03-.02-.05-.02-.04-.03-.09-.03-.13-.01-.09-.02-.17-.03-.26-.04-.16-.07-.32-.1-.48-.09-.26-.16-.53-.2-.81-.12-.37-.19-.76-.24-1.15-.04-.14-.08-.26-.09-.31-.28-.79-.55-1.59-.77-2.4-.05-.18-.09-.37-.14-.55-.15-.31-.27-.64-.35-.96,0,0,0-.01,0-.02,0-.05-.01-.1-.02-.14-.07-.24-.12-.49-.14-.74-.09-.24-.17-.49-.22-.75-.05-.13-.11-.26-.15-.4-.05-.17-.07-.33-.1-.49-.05-.17-.1-.35-.16-.52-.77-2.5-1.45-5.06-2.44-7.48-1-2.45-2.22-4.82-3.41-7.19-.6-1.21-1.23-2.41-1.91-3.58-.64-1.09-1.45-2.04-2.29-2.98-.33-.37-.67-.73-1-1.1.65-.39,1.28-.83,1.84-1.34,1.67-1.48,2.55-3.51,3.05-5.64.26-1.1.46-2.21.54-3.34.08-1.18.08-2.37.06-3.56-.03-1.24-.11-2.47-.24-3.71-.13-1.19-.26-2.4-.57-3.56-.63-2.33-2.07-4.46-3.82-6.1-.84-.79-1.79-1.46-2.83-1.96-1.03-.49-2.13-.74-3.25-.89-.55-.07-1.11-.15-1.67-.08-.53.07-1.03.32-1.41.7-.4.41-.68.92-.96,1.42-.24.45-.49.95-.88,1.29-.65.56-1.78.2-2.56.09-1.07-.15-2.24-.27-3.25.21-.54.26-.9.63-1.11,1.07-1.98.27-3.65,1.73-4.69,3.37-.58.92-.97,1.92-1.13,2.99-.08.53-.12,1.07-.08,1.61.02.23.06.46.1.68.02.11.03.2.02.3,0,0,0,.08,0,.05,0,.02-.01.03-.01.04-.01,0-.02.02-.03.03-.01.01-.08.06-.11.08-.11.08-.22.15-.33.22-.27.17-.54.33-.81.52-.48.33-.93.72-1.21,1.24-.29.53-.38,1.11-.36,1.69-.11-.07-.25-.09-.41-.02-.74.34-1.5.61-2.14,1.14-.54.44-1.01,1.04-1.35,1.65-.64,1.14-.87,2.57-.72,3.86.17,1.44,1.03,2.76,1.92,3.86.75.92,1.75,1.64,2.9,1.97.58.17,1.2.25,1.8.25.8,0,1.6.04,2.41.09,1.48.09,3.02-.23,4.44.35.64.26,1.21.67,1.8,1.02.65.39,1.35.68,2.04.98,1.4.61,2.83,1.13,4.37,1.25.72.05,1.44.02,2.16-.02.75-.04,1.5-.05,2.24-.18.37-.06.73-.17,1.09-.27.37-.11.76-.23,1.04-.5.26-.25.42-.59.61-.9.2-.33.39-.67.58-1.01.04-.08.09-.17.13-.26.02,0,.04,0,.06,0,.02,0,.04,0,.05-.01.7.88,1.49,1.68,2.19,2.56.79,1,1.39,2.14,1.98,3.27,1.22,2.31,2.37,4.67,3.47,7.04.55,1.19,1.06,2.4,1.47,3.65.41,1.25.78,2.51,1.17,3.77.77,2.5,1.53,5,2.22,7.52.68,2.47,1.24,4.96,1.63,7.5.39,2.52.66,5.07.87,7.61.06.68.11,1.36.15,2.03-.7-2.05-1.52-4.07-2.42-6.04-1.45-3.18-3.13-6.2-5.15-9.05-2-2.82-4.24-5.45-6.62-7.95-2.35-2.47-4.84-4.82-7.46-7-1.31-1.09-2.63-2.16-4.05-3.09-1.32-.87-2.71-1.72-4.14-2.39-.06-.03-.13-.06-.19-.09-.19-.17-.4-.33-.62-.46-.21-.12-.48-.09-.64.11-.17.21-.13.44.02.65.18.25.45.43.74.58.39.37.72.8,1.07,1.19.6.67,1.21,1.35,1.79,2.04,1.16,1.36,2.29,2.75,3.39,4.15,1.09,1.39,2.13,2.83,3.03,4.35.94,1.58,1.65,3.25,2.39,4.93.74,1.67,1.59,3.28,2.44,4.9.81,1.54,1.62,3.08,2.49,4.59.86,1.49,1.78,2.94,2.83,4.31,1.05,1.37,2.24,2.62,3.54,3.76,1.28,1.12,2.68,2.08,3.92,3.25ZM162.44,54.51c.59.95,1.05,1.97,1.32,3.06.28,1.11.4,2.27.52,3.41.24,2.29.32,4.63.15,6.92-.08,1.07-.26,2.12-.51,3.16-.23.95-.53,1.91-.97,2.79-.47.92-1.08,1.73-1.86,2.41-.25.22-.51.42-.78.62.03-.21.06-.42.08-.62.47-.86.88-1.75,1.21-2.66.35-.94.56-1.94.77-2.92.39-1.86.77-3.76.81-5.67.02-1.05-.09-2.1-.18-3.15-.08-.99-.1-2-.34-2.98-.23-.95-.61-1.87-.97-2.77-.37-.91-.67-1.85-1.07-2.74-.23-.51-.55-.97-.85-1.44-.2-.33-.4-.66-.59-.99,1.31.96,2.41,2.22,3.26,3.59ZM153.18,49.09c.5-.09,1.04.02,1.54.08,1.03.14,2.05.38,2.98.84.16.08.31.17.47.25.18.22.33.47.46.7.2.35.4.7.61,1.04.25.41.53.79.76,1.21.44.83.71,1.75,1.06,2.62.36.89.74,1.78,1.01,2.71.27.91.36,1.86.41,2.81.06,1.02.16,2.03.21,3.05.09,1.84-.32,3.7-.66,5.5-.2,1.05-.41,2.14-.75,3.15-.19.55-.41,1.1-.65,1.63.09-.75.14-1.5.15-2.26.05-2.02,0-4.05-.34-6.04-.36-2.01-.97-3.96-1.66-5.88-.35-.97-.72-1.93-1.08-2.9-.38-1.02-.77-2.04-1.29-3-.55-1.02-1.15-2.06-1.86-2.98-.35-.45-.71-.91-1.09-1.35-.18-.21-.38-.4-.59-.57-.12-.1-.24-.19-.35-.3.2-.16.42-.28.68-.32ZM140.94,54.75c.52-.38,1.09-.66,1.71-.81-.1,1.08.23,2.31.54,3.25.05.17.11.34.16.51-.14-.15-.29-.3-.44-.44-.76-.72-1.5-1.44-2.32-2.1-.03-.03-.06-.04-.09-.05.14-.12.29-.25.45-.36ZM140.23,55.35c0,.08.02.16.1.22.78.63,1.5,1.32,2.22,2.02.35.34.7.69.95,1.11.07.11.14.23.2.35.09.45.13.91.08,1.38-.06.61-.26,1.18-.47,1.74-.38-.96-.84-1.88-1.38-2.75-.37-.6-.78-1.18-1.23-1.73-.41-.49-.85-.97-1.27-1.45.24-.32.51-.62.8-.9ZM138.07,59.5c.12-1.01.51-1.98,1.07-2.85.36.44.76.85,1.12,1.28.46.54.86,1.12,1.24,1.72.64,1.02,1.16,2.1,1.57,3.23-.06.18-.11.36-.15.54-.08.33-.12.67-.13,1.01-.11-.11-.22-.23-.33-.34-.45-.47-.95-.9-1.42-1.35-.46-.45-.93-.88-1.44-1.28-.5-.39-1-.78-1.42-1.26-.05-.05-.1-.08-.16-.08,0-.2.02-.4.05-.6ZM138.01,62.38c.24-.45.09-.98.02-1.45,0-.06-.01-.12-.02-.19.38.4.82.74,1.26,1.08.54.42,1.03.89,1.53,1.36.25.24.52.47.77.7.24.22.47.47.7.7.17.17.36.34.52.53.04.6.15,1.19.3,1.76.05.2.12.4.18.6-.36-.32-.73-.63-1.11-.94-.6-.5-1.21-1-1.84-1.47-.22-.17-.46-.34-.68-.51-.52-.49-1.03-.99-1.55-1.48-.04-.04-.09-.06-.14-.07-.07-.07-.13-.14-.2-.21-.03-.03-.05-.05-.08-.07.13-.09.24-.2.33-.35ZM135.63,64.28c.3-.42.75-.7,1.18-.97.16-.1.31-.2.47-.3,0,0,0,0,.01.01.41.4.77.85,1.2,1.23.24.2.49.4.74.59.46.44.93.87,1.43,1.28.5.41,1.01.83,1.53,1.22.26.19.53.37.77.57.18.15.37.27.55.42.05.05.11.1.16.15.26.58.57,1.13.91,1.66.68,1.03,1.48,1.94,2.37,2.79.89.85,1.8,1.69,2.78,2.42.94.7,1.96,1.31,2.98,1.87.36.2.74.4,1.11.59-.42-.14-.84-.29-1.25-.44-1.55-.58-3.07-1.26-4.48-2.13-1.48-.91-2.87-1.95-4.26-2.98-.71-.52-1.41-1.05-2.08-1.62-.67-.57-1.29-1.18-1.92-1.79-.73-.7-1.48-1.37-2.18-2.09-.69-.7-1.33-1.45-1.95-2.21-.06-.07-.12-.09-.19-.08.04-.06.07-.13.12-.19ZM135.34,64.9c.57.69,1.15,1.37,1.78,2.02.62.64,1.28,1.23,1.92,1.85.67.64,1.32,1.3,2.01,1.91.66.58,1.35,1.12,2.05,1.65,1.42,1.06,2.84,2.13,4.34,3.09,1.43.91,2.96,1.65,4.55,2.26,1.09.42,2.24.87,3.41,1.06-.03,0-.07,0-.1,0-1,.05-2.01-.03-2.99-.25-2-.45-3.78-1.41-5.52-2.47-.97-.59-1.97-1.15-3.04-1.57-.99-.39-2.04-.62-3.01-1.07-1.79-.83-3.27-2.31-4.25-4-.49-.85-.86-1.77-1.08-2.73-.13-.58-.21-1.18-.06-1.74ZM155.48,79.72c.55-.04,1.09-.11,1.62-.23-.13.07-.26.14-.39.21-.47.25-.94.48-1.47.57-.46.08-.94.07-1.4,0-.95-.13-1.83-.49-2.68-.92-.26-.13-.52-.27-.78-.4,1.63.59,3.36.89,5.1.77ZM131.57,68.23c.46-.59.98-1.02,1.65-1.34.35-.16.7-.31,1.05-.47.03-.01.05-.03.08-.04.02.15.05.29.08.44.47,2.08,1.59,4.03,3.12,5.52.77.75,1.66,1.41,2.64,1.87.91.43,1.88.69,2.82,1.02-.19-.06-.37-.11-.56-.17-2.12-.61-4.28-1.15-6.3-2.07-1.08-.5-2.22-.97-3.19-1.67-.47-.34-.88-.74-1.22-1.21-.29-.41-.47-.85-.56-1.32.12-.2.25-.39.39-.57ZM150.52,80.99c-.7-.12-1.39-.35-2.06-.61-.69-.26-1.37-.57-2.04-.87-.62-.28-1.18-.64-1.76-.99-.59-.35-1.2-.68-1.88-.84-.72-.17-1.46-.2-2.2-.17-.76.03-1.51.05-2.27.02-.75-.03-1.5-.02-2.25-.04-1.09-.03-2.11-.35-2.98-1.02-.45-.35-.83-.8-1.18-1.25-.42-.57-.81-1.17-1.09-1.82-.17-.39-.28-.81-.33-1.23.51.57,1.05,1.13,1.66,1.58.73.54,1.59.9,2.45,1.2,1.79.61,3.67.84,5.52,1.22.95.19,1.89.42,2.81.7.44.13.87.3,1.27.51.42.21.8.48,1.22.7.39.2.8.38,1.19.6.43.24.85.51,1.27.77.4.25.81.51,1.24.7.4.18.82.28,1.22.45.47.19.93.4,1.43.5.01,0,.02,0,.03,0-.43-.01-.86-.05-1.29-.12ZM157.37,80.14c-.17.28-.37.38-.68.47-.67.2-1.33.35-2.02.4-.18.01-.35.02-.53.03-.19-.03-.37-.06-.56-.11-.44-.11-.86-.19-1.31-.25-.45-.06-.86-.18-1.28-.35-.4-.17-.8-.32-1.21-.46-.45-.15-.85-.37-1.25-.61-.81-.48-1.58-1-2.43-1.4-.79-.38-1.51-.88-2.33-1.21-.87-.35-1.8-.56-2.71-.76-1.82-.41-3.69-.62-5.49-1.11-.97-.26-1.95-.6-2.82-1.12-.89-.54-1.61-1.33-2.3-2.1,0-.61.11-1.23.29-1.8.05-.16.11-.31.18-.46.25.77.71,1.43,1.33,1.98.83.75,1.85,1.22,2.85,1.7,1.04.5,2.08.97,3.18,1.33,1.12.37,2.26.68,3.39,1.01,1.09.31,2.21.6,3.27.99.53.2,1,.5,1.47.82.48.32.96.64,1.46.94,1.01.6,2.04,1.17,3.08,1.7.89.45,1.8.81,2.79.97.55.09,1.11.1,1.66,0,.6-.11,1.14-.38,1.67-.67.17-.09.34-.2.51-.28-.07.12-.15.25-.22.37ZM156.06,77.65c-1.05-.31-2.04-.82-2.99-1.36-.99-.55-1.97-1.14-2.87-1.83-.91-.69-1.75-1.48-2.58-2.27-1.62-1.54-3-3.4-3.57-5.6-.27-1.01-.4-2.08-.12-3.1.14-.51.35-.99.52-1.49.08-.23.15-.47.2-.71.18,1.21.52,2.37,1.15,3.43.4.67.87,1.3,1.34,1.93.47.62.94,1.24,1.43,1.84.98,1.19,2.04,2.31,3.21,3.32,1.21,1.04,2.4,2.11,3.56,3.2,1,.94,2.05,1.87,2.96,2.91-.75,0-1.5-.07-2.23-.29ZM158.78,77.81c-.77-.92-1.66-1.75-2.53-2.58-1.15-1.11-2.32-2.2-3.54-3.24-1.16-1-2.27-2.03-3.27-3.18-1.01-1.16-1.98-2.4-2.86-3.67-.49-.7-.9-1.45-1.17-2.27-.25-.77-.38-1.58-.46-2.39-.01-.11-.09-.16-.17-.16.06-1.07-.23-2.1-.56-3.11-.3-.93-.63-1.91-.62-2.87,0-.12,0-.23.02-.34.09.16.2.3.35.44.17.15.35.29.5.47.18.2.34.43.51.64.32.42.7.79,1.05,1.19.36.42.71.86,1.04,1.3,1.38,1.81,2.75,3.64,4.04,5.51,1.29,1.87,2.29,3.91,3.31,5.93.51,1,1.04,2,1.55,3,.52,1.02,1.05,2.04,1.63,3.03.35.61.75,1.19,1.08,1.8.07.14.15.28.22.43-.04.02-.08.04-.13.07ZM159.42,77.46s-.07.04-.11.06c-.22-.49-.52-.95-.61-1.1-.5-.83-1-1.67-1.46-2.53-.54-1.02-1.06-2.06-1.59-3.1-1.07-2.07-2.07-4.2-3.28-6.2-1.19-1.97-2.62-3.8-4-5.65-.77-1.03-1.52-2.06-2.39-3.01-.21-.23-.42-.45-.61-.69-.17-.23-.34-.46-.53-.68-.37-.41-.9-.65-.92-1.26,0-.04-.01-.08-.03-.11.16-.26.41-.46.76-.59.46-.17.98-.18,1.47-.15.27.02.55.04.82.08.85.22,1.61.64,2.23,1.26.69.7,1.24,1.54,1.81,2.35,1.16,1.67,2.2,3.41,3.17,5.2.98,1.79,1.88,3.62,2.7,5.49.78,1.77,1.46,3.59,1.93,5.47.26,1.04.45,2.1.56,3.17.05.5.09,1.01.09,1.52,0,.15,0,.3,0,.45ZM159.93,76.12c-.02.13-.04.26-.06.39-.01-.32-.04-.65-.06-.97-.08-.97-.24-1.93-.46-2.88-.43-1.91-1.09-3.76-1.87-5.55-.82-1.9-1.73-3.77-2.71-5.59-.98-1.81-2.02-3.6-3.19-5.29-.33-.47-.66-.94-1-1.4-.33-.44-.64-.88-1.03-1.28-.29-.3-.61-.55-.95-.77.6.04,1.19-.03,1.7-.38.9-.62,1.22-1.76,1.84-2.61,0,0,0,0,.01-.01.2.19.43.35.63.55.37.37.69.79,1.01,1.2.33.41.65.82.93,1.26.27.43.53.87.78,1.3.54.93,1,1.87,1.39,2.87.38.97.75,1.95,1.11,2.93.7,1.88,1.34,3.78,1.76,5.75.21.98.37,1.97.44,2.97.07,1,.08,2,.07,3,0,1.12-.04,2.25-.19,3.36-.05.38-.11.75-.17,1.12,0,0,0,.02,0,.02ZM146.46,90.46c.18.11.37.21.55.32,1.43.86,2.76,1.83,4.06,2.87,2.64,2.12,5.14,4.41,7.51,6.82,2.39,2.43,4.65,5,6.7,7.73,2.06,2.75,3.81,5.67,5.3,8.77,1.29,2.7,2.44,5.48,3.35,8.34-.43-.52-.88-1.02-1.31-1.53-1.01-1.18-1.98-2.4-2.92-3.64-1.9-2.52-3.68-5.12-5.42-7.76-.87-1.31-1.74-2.62-2.59-3.95-.84-1.32-1.57-2.7-2.41-4.01-.84-1.31-1.85-2.51-2.78-3.75-.93-1.24-1.77-2.53-2.81-3.68-1.99-2.2-4.34-4.08-6.67-5.89-.18-.21-.37-.42-.55-.63ZM164.6,119.54c-1.07-1.31-2-2.73-2.86-4.18-.87-1.47-1.67-2.98-2.47-4.48-.85-1.6-1.72-3.19-2.47-4.84-.75-1.65-1.42-3.35-2.3-4.94-.87-1.57-1.89-3.05-2.97-4.48-.96-1.27-1.98-2.51-3-3.74,1.42,1.15,2.79,2.35,4.07,3.65,1.09,1.11,2.01,2.33,2.91,3.59.89,1.26,1.89,2.45,2.79,3.7.91,1.26,1.62,2.65,2.43,3.97.81,1.32,1.68,2.62,2.53,3.92,1.72,2.62,3.46,5.22,5.32,7.74.91,1.24,1.85,2.46,2.83,3.65.49.6.99,1.18,1.5,1.76.46.52.92,1.05,1.32,1.62.04.05.07.1.1.15.1.35.2.71.3,1.07,0,.05,0,.09,0,.14-.05,0-.09.01-.13.03-.13-.09-.27-.18-.42-.25-.37-.19-.75-.34-1.11-.56-.33-.2-.63-.44-.92-.7-.61-.54-1.17-1.13-1.81-1.62-.67-.52-1.35-1.03-2.01-1.57-1.32-1.11-2.56-2.3-3.65-3.64Z"/>
        <path class="cls-1" d="M213.51,92.29s-.04,0-.06.01c-.03-.02-.08-.03-.13-.03-.18,0-.34.08-.48.18-.43.14-.85.33-1.27.5-.68.27-1.35.55-2.02.82-1.31.53-2.62,1.03-3.89,1.66-2.45,1.21-4.75,2.7-6.98,4.28-2.26,1.59-4.43,3.3-6.49,5.15-2.06,1.85-4.05,3.81-5.73,6.01-.87,1.14-1.67,2.33-2.43,3.55.18-.39.36-.78.54-1.16,1.1-2.37,2.3-4.74,3.18-7.2.89-2.49,1.56-5.07,2.26-7.62.36-1.31.7-2.62.97-3.94.25-1.24.28-2.49.28-3.75,0-.41,0-.81,0-1.22-.11-.05-.21-.1-.28-.15-.23.14-.45.28-.68.42-.03.95,0,1.9-.07,2.85-.08,1.27-.4,2.52-.71,3.75-.64,2.53-1.35,5.06-2.12,7.55-.39,1.25-.81,2.5-1.34,3.7-.53,1.2-1.09,2.39-1.64,3.59-1.09,2.38-2.2,4.75-3.37,7.08-1.15,2.29-2.39,4.52-3.79,6.67-1.09,1.67-.99,2.03-2.18,3.63.18.34.33.69.44,1.07,2.07-2.76,2.78-4.32,4.5-7.31.13-.03.24-.11.29-.23.14-.32.37-.56.61-.8.24-.25.46-.5.7-.75.47-.51,1.01-.94,1.56-1.36,1.17-.88,2.51-1.43,3.86-1.96,1.4-.55,2.78-1.15,4.12-1.86,1.32-.7,2.61-1.47,3.86-2.29,2.46-1.6,4.9-3.29,7.07-5.27,1.11-1.01,2.09-2.11,3.05-3.26,1-1.19,1.97-2.41,2.91-3.65.47-.62.93-1.25,1.39-1.89.44-.62.86-1.25,1.32-1.84.47-.61.96-1.19,1.46-1.77.46-.54.98-1.05,1.39-1.62.19-.27.35-.58.39-.91.03-.28-.13-.66-.49-.61ZM186.41,112.16c1.63-2.2,3.55-4.14,5.57-5.99,1.98-1.81,4.08-3.5,6.27-5.06,2.19-1.57,4.45-3.06,6.83-4.32,1.17-.62,2.38-1.18,3.62-1.65.86-.32,1.71-.67,2.56-1.01-.08.09-.16.18-.24.27-.86.96-1.94,1.71-2.91,2.56-.51.45-.99.94-1.5,1.38-.49.43-1,.82-1.51,1.21-.51.38-1.02.77-1.51,1.16-.51.41-1,.85-1.51,1.27-1.06.87-2.18,1.67-3.28,2.49-1.06.79-2.11,1.6-3.18,2.36-1.08.77-2.17,1.54-3.2,2.39-1.03.85-2.05,1.71-3.1,2.54-2.21,1.75-4.29,3.65-6.28,5.64,1.05-1.8,2.15-3.58,3.39-5.26ZM212.03,94.14c-.5.58-1,1.16-1.48,1.76-.97,1.2-1.82,2.49-2.74,3.73-.9,1.22-1.84,2.42-2.81,3.59-.96,1.16-1.92,2.32-3.01,3.37-2.09,2.02-4.49,3.7-6.91,5.3-2.47,1.64-5.04,3.12-7.8,4.21-1.36.54-2.79,1.04-4.02,1.85-.33.21-.64.45-.95.69.07-.12.13-.23.2-.35.07.05.17.05.25-.03,1.9-1.93,3.89-3.79,6-5.5,1.05-.85,2.12-1.65,3.15-2.52,1.01-.86,2.05-1.66,3.13-2.43,2.16-1.54,4.3-3.11,6.4-4.73,1.02-.79,1.97-1.66,3-2.44,1.01-.78,2.05-1.52,2.98-2.4.54-.51,1.09-1.01,1.65-1.49.56-.47,1.16-.91,1.7-1.41.51-.48.95-1.04,1.42-1.55.03-.03.06-.06.09-.09.08-.03.16-.06.24-.1-.16.18-.34.35-.49.52Z"/>
        <path class="cls-1" d="M209.9,65.81c-.62-.33-1.33-.59-2.02-.68-.81-.1-1.61.07-2.41.17-.17.02-.27.12-.33.24-.29-.5-.68-.94-1.2-1.24-.51-.29-1.1-.38-1.68-.4-.32-.01-.64,0-.96,0-.13,0-.27,0-.4,0-.04,0-.12,0-.14-.01-.01,0-.03,0-.04,0,0,0-.02-.01-.03-.03.02.03-.03-.04-.02-.04-.06-.09-.1-.17-.14-.27-.09-.21-.17-.43-.28-.63-.25-.47-.58-.91-.92-1.32-.71-.82-1.57-1.46-2.55-1.93-1.75-.84-3.94-1.18-5.76-.36-.42-.26-.92-.38-1.51-.32-1.11.13-2.04.85-2.86,1.55-.6.51-1.37,1.41-2.22,1.29-.51-.08-.99-.38-1.43-.62-.5-.28-1-.56-1.56-.69-.52-.12-1.08-.07-1.57.15-.51.24-.94.6-1.37.95-.87.73-1.67,1.52-2.28,2.48-.62.97-1.06,2.05-1.36,3.17-.61,2.33-.7,4.89,0,7.2.35,1.15.88,2.24,1.41,3.32.54,1.11,1.13,2.2,1.77,3.27.61,1.02,1.24,2.03,1.94,2.98.67.91,1.43,1.75,2.23,2.54,1.56,1.53,3.39,2.79,5.59,3.15.75.12,1.51.17,2.27.15-.03.17-.06.34-.09.51.32.03.63.07.94.13,0,0,0,0,0,0,.02-.15.05-.3.07-.46.02,0,.04,0,.05-.02.02,0,.04-.02.05-.03.09.05.17.11.25.15.34.19.68.38,1.03.55.32.16.63.36.99.44.39.08.78-.02,1.15-.13.36-.1.72-.2,1.07-.35.69-.29,1.34-.67,1.99-1.04.63-.35,1.26-.71,1.84-1.14,1.24-.91,2.18-2.12,3.04-3.38.42-.62.86-1.24,1.2-1.91.31-.61.58-1.26.98-1.82.89-1.24,2.37-1.79,3.57-2.66.65-.47,1.31-.92,1.99-1.35.51-.33.99-.72,1.39-1.17.8-.89,1.26-2.03,1.41-3.21.17-1.41.2-2.99-.42-4.29-.56-1.17-1.51-2.26-2.66-2.88ZM205.6,66.58c-.05-.14-.1-.28-.16-.42.03,0,.06,0,.09,0,.38-.05.76-.12,1.14-.16.74-.09,1.41,0,2.11.25.22.08.43.17.63.28.17.45.26.92.23,1.42-.04.57-.17,1.14-.39,1.67-.45,1.11-1.16,2.11-1.82,3.11-1.22,1.85-2.76,3.45-4.23,5.1-.13.15-.26.29-.39.44.62-.79,1.31-1.52,1.84-2.37.58-.91.98-1.94,1.24-2.99.51-2.07.42-4.32-.29-6.33ZM204.68,66.94c.32.93.5,1.91.54,2.89.08,1.96-.4,4-1.47,5.65-.58.89-1.35,1.65-1.98,2.51-.68.92-1.23,1.93-1.74,2.95-.91,1.82-1.91,3.58-3.36,5.02-.71.71-1.52,1.32-2.4,1.81-.03.02-.06.03-.09.05.89-.79,1.62-1.78,2.32-2.71,1.02-1.36,1.92-2.79,2.65-4.33.76-1.6,1.4-3.27,2.04-4.92.32-.82.61-1.65.86-2.49.26-.89.46-1.79.69-2.68.22-.86.46-1.72.64-2.59.18-.88.31-1.77.43-2.66.42.39.68.95.87,1.51ZM198.55,85.33c-.15.25-.3.51-.45.76-.49.81-1.05,1.59-1.78,2.2-.36.3-.75.56-1.19.74-.49.2-1.02.27-1.55.3-.15,0-.3.02-.44.03.52-.18,1.02-.41,1.5-.67,1.54-.82,2.84-2,3.91-3.36ZM203.23,65.06c.07.03.14.06.2.1-.06.03-.1.08-.12.17-.13.98-.27,1.95-.48,2.91-.21.98-.49,1.96-.74,2.93-.21.85-.41,1.7-.67,2.54-.26.84-.58,1.66-.9,2.47-.63,1.61-1.25,3.24-2.02,4.79-.74,1.49-1.66,2.87-2.67,4.19-.27.35-.54.7-.82,1.04.22-.36.43-.72.63-1.09.57-1.02,1.11-2.08,1.53-3.17.44-1.15.76-2.34,1.07-3.53.31-1.19.5-2.39.53-3.63.01-.63-.02-1.26-.11-1.89.02-.07.04-.14.06-.21.07-.22.17-.43.24-.64.1-.31.23-.6.35-.9.24-.6.44-1.23.65-1.84.2-.61.37-1.22.53-1.84.11-.29.22-.59.31-.89.17-.55.23-1.12.36-1.68,0,0,0-.01,0-.02.19,0,.37,0,.56,0,.5,0,1.04,0,1.51.19ZM200.21,64.72c.15.09.31.11.47.12,0,.03-.02.07-.03.1-.02.09-.04.19-.06.29-.04.03-.07.07-.08.13-.18.69-.34,1.39-.52,2.08-.1.26-.21.53-.31.79-.28.73-.53,1.48-.77,2.22-.15.46-.3.92-.44,1.38-.05-.2-.1-.41-.16-.61-.17-.57-.4-1.13-.68-1.65.04-.24.1-.49.16-.73.08-.32.13-.65.22-.97.09-.34.2-.67.28-1.01.17-.67.33-1.32.57-1.97.19-.52.37-1.04.49-1.58.03.06.06.12.09.17.19.43.35.97.79,1.22ZM198.63,62.32c.13.16.25.32.36.49-.04.03-.08.08-.09.15-.1.63-.31,1.22-.53,1.82-.22.61-.39,1.22-.54,1.85-.15.64-.35,1.26-.48,1.9-.03.16-.07.31-.1.47-.19-.28-.41-.54-.65-.78-.13-.13-.27-.25-.42-.37-.26-1.17-.39-2.37-.39-3.57,0-.71.03-1.41.14-2.11.08-.56.2-1.12.27-1.68.94.43,1.78,1.05,2.42,1.84ZM194.63,60.19c.03-.09.01-.18-.04-.24.39.08.78.19,1.15.33-.1.64-.22,1.27-.31,1.91-.1.7-.13,1.41-.13,2.12,0,1.03.11,2.05.29,3.06-.48-.37-.95-.74-1.32-1.23-.29-.38-.5-.79-.67-1.22,0-.14-.01-.27-.01-.41,0-.49.1-.97.22-1.44.25-.97.48-1.94.81-2.89ZM191.8,60.04c.6-.19,1.24-.26,1.88-.22.19.01.38.04.57.07-.02.02-.04.05-.05.09-.34.99-.59,2-.85,3.01-.05.2-.1.4-.13.61-.04-.17-.09-.34-.13-.52-.24-.95-.61-2.17-1.27-3.04ZM189.03,88.86c-.33-.02-.66-.05-.99-.1-1.02-.16-1.97-.51-2.86-1.05-.84-.51-1.6-1.16-2.3-1.85-.77-.75-1.48-1.54-2.11-2.4-1.36-1.86-2.54-3.88-3.55-5.95-.51-1.03-1.02-2.07-1.37-3.17-.35-1.07-.5-2.17-.5-3.29,0-1.61.26-3.26.85-4.77.01.38.03.77.03,1.15,0,.56-.03,1.12.05,1.67.13.97.38,1.93.55,2.89.17.96.34,1.94.65,2.87.31.95.83,1.82,1.3,2.7.49.93.95,1.88,1.52,2.76,1.05,1.59,2.38,3,3.7,4.37.7.72,1.41,1.45,2.21,2.07.77.6,1.59,1.13,2.44,1.61.13.16.27.32.4.48ZM187.61,87.17c-.49-.32-.96-.67-1.42-1.03-.83-.67-1.59-1.48-2.31-2.27-1.25-1.34-2.58-2.7-3.49-4.3-.5-.89-.95-1.81-1.45-2.7-.46-.83-.89-1.68-1.15-2.59-.26-.93-.41-1.88-.58-2.83-.17-.92-.43-1.84-.5-2.78-.03-.48,0-.95,0-1.43,0-.4-.02-.81-.04-1.21,0-.27-.01-.56.02-.84.08-.16.17-.31.26-.46.54-.89,1.28-1.64,2.08-2.3.39-.32.79-.7,1.26-.89.25-.1.5-.12.75-.09-.04.15-.09.3-.14.44-.09.26-.15.53-.2.8-.09.57-.15,1.15-.21,1.72-.12,1.16-.06,2.36,0,3.52.07,1.09.28,2.16.5,3.23.2,1.01.41,2.02.63,3.03.44,1.99.95,3.97,1.72,5.86.76,1.87,1.81,3.62,2.92,5.3.42.63.85,1.25,1.33,1.83ZM189.2,88.31c-.08-.1-.17-.2-.25-.3,0,0-.01-.01-.02-.02-.25-.29-.49-.57-.74-.86-.72-.86-1.35-1.8-1.95-2.75-.53-.84-1.06-1.7-1.53-2.58-.47-.89-.86-1.81-1.21-2.75-.68-1.89-1.15-3.84-1.56-5.8-.21-1.02-.42-2.04-.62-3.07-.2-1.06-.31-2.1-.35-3.17-.02-.51-.04-1.01-.03-1.52,0-.53.06-1.04.12-1.56.06-.52.1-1.05.22-1.56.06-.27.17-.53.24-.8,0,0,.01,0,.02,0,.97.39,1.85,1.18,2.94,1.23.62.03,1.16-.23,1.65-.58-.17.37-.3.75-.39,1.16-.11.54-.15,1.08-.19,1.63-.04.57-.08,1.14-.1,1.72-.09,2.06-.02,4.12.11,6.18.14,2.07.36,4.13.68,6.17.3,1.93.73,3.85,1.37,5.7.32.92.7,1.82,1.14,2.68.15.29.3.57.46.85ZM190.22,88.87s-.08,0-.12,0c-.08-.13-.16-.26-.24-.38-.27-.43-.51-.88-.74-1.33-.48-.96-.87-1.96-1.21-2.98-.61-1.84-1-3.74-1.28-5.66-.29-2.02-.51-4.05-.63-6.09-.12-2.03-.17-4.06-.08-6.09.05-.98.07-1.99.28-2.95.19-.86.61-1.62,1.22-2.26.21-.17.43-.34.65-.5.4-.28.84-.55,1.32-.65.37-.08.68-.03.95.1,0,.03.01.07.03.11.3.53-.02,1.01-.11,1.56-.05.28-.06.57-.09.86-.03.31-.09.61-.15.91-.23,1.26-.32,2.54-.42,3.82-.19,2.29-.42,4.61-.39,6.91.04,2.34.32,4.67.52,6.99.1,1.16.22,2.31.3,3.47.07.97.09,1.94.11,2.91,0,.18,0,.73.07,1.26ZM190.82,88.83s-.09,0-.14.01c-.02-.16-.03-.32-.04-.48-.05-.7-.02-1.4-.04-2.1-.04-1.14-.13-2.29-.23-3.43-.1-1.12-.19-2.25-.29-3.37-.2-2.25-.44-4.51-.35-6.78.1-2.27.29-4.55.49-6.82.05-.55.11-1.1.19-1.65.08-.52.21-1.04.25-1.56.02-.27.04-.55.09-.82.04-.23.12-.44.18-.66.06-.2.08-.38.06-.56.07.09.14.18.2.28.52.81.76,1.81,1,2.76.26,1.03.56,2.05,1.18,2.93-.07.04-.11.12-.06.23.36.73.68,1.48.88,2.27.21.83.25,1.69.22,2.54-.07,1.54-.23,3.1-.47,4.63-.24,1.51-.63,2.98-1.08,4.44-.47,1.53-.88,3.07-1.27,4.63-.29,1.17-.61,2.34-.77,3.53ZM191.3,88.68c.22-1.36.61-2.71.96-4.04.4-1.55.84-3.08,1.32-4.61.45-1.47.75-2.99.95-4.52.1-.77.17-1.55.23-2.32.06-.78.13-1.56.11-2.35-.03-1.24-.36-2.4-.85-3.52.17.17.36.34.55.49.41.33.85.63,1.24.99.78.72,1.23,1.69,1.55,2.69.68,2.17.5,4.47-.05,6.64-.28,1.11-.57,2.22-.98,3.3-.4,1.06-.92,2.08-1.46,3.07-.52.96-1.09,1.92-1.81,2.74-.5.57-1.1,1.03-1.74,1.43ZM212.17,70.24c.1.7.09,1.42.04,2.12-.04.57-.13,1.15-.33,1.69-.38,1.03-1.07,1.85-1.98,2.45-.62.41-1.26.8-1.88,1.23-.63.43-1.27.81-1.93,1.19-.64.37-1.25.78-1.77,1.31-.49.49-.84,1.09-1.14,1.71-.3.6-.59,1.21-.97,1.77-.41.62-.82,1.23-1.27,1.82-.43.57-.89,1.13-1.42,1.61-.32.29-.67.55-1.03.79,0,0,.02-.01.02-.02.37-.35.65-.78.95-1.19.26-.35.56-.66.8-1.03.26-.4.47-.83.68-1.25.22-.45.43-.9.67-1.33.21-.39.46-.76.69-1.14.24-.4.42-.83.66-1.24.23-.39.51-.76.81-1.11.63-.73,1.31-1.42,2.01-2.09,1.36-1.3,2.83-2.5,4.03-3.97.57-.7,1.1-1.47,1.44-2.31.28-.71.44-1.47.56-2.22.18.39.31.79.37,1.22ZM211.49,68.47c-.17,1.02-.36,2.08-.83,3.01-.46.9-1.1,1.71-1.79,2.44-1.27,1.37-2.74,2.54-4.06,3.86-.66.66-1.34,1.33-1.89,2.09-.52.71-.86,1.52-1.33,2.26-.5.8-.89,1.64-1.31,2.48-.21.42-.44.82-.73,1.18-.28.34-.53.68-.78,1.03-.26.37-.55.69-.9.98-.35.29-.67.58-.98.91-.13.14-.27.26-.41.39-.16.09-.31.17-.47.26-.62.33-1.25.56-1.93.74-.31.09-.53.1-.82-.04-.13-.06-.26-.13-.38-.2.19-.02.39-.02.58-.04.6-.04,1.21-.1,1.77-.32.52-.2.99-.52,1.41-.88.75-.66,1.33-1.45,1.85-2.3.61-1,1.18-2.03,1.71-3.08.26-.52.5-1.04.74-1.57.23-.52.47-1.02.81-1.48.69-.9,1.49-1.74,2.24-2.58.79-.88,1.58-1.75,2.34-2.66.74-.89,1.37-1.84,1.98-2.82.59-.94,1.2-1.88,1.51-2.95.23-.8.27-1.61.08-2.39.14.09.27.19.39.29.46.39.88.86,1.2,1.37Z"/>
      </g>
      <g>
        <path class="cls-1" d="M119.78,272.87c-.49-.58-1.02-1-1.59-1.27-.57-.26-1.2-.39-1.88-.39-.76,0-1.44.13-2.03.39-.59.26-1.07.63-1.46,1.09-.38.47-.67,1-.87,1.62s-.29,1.27-.29,1.96.11,1.35.34,1.96c.23.61.54,1.15.94,1.62.4.47.89.83,1.46,1.09.57.26,1.21.39,1.91.39,1.51,0,2.67-.56,3.5-1.69l1.71,1.6c-.67.76-1.45,1.31-2.35,1.66-.9.35-1.85.52-2.85.52-1.06,0-2.03-.17-2.91-.52-.88-.35-1.63-.84-2.25-1.48s-1.1-1.4-1.44-2.27c-.34-.87-.51-1.83-.51-2.88s.17-1.98.51-2.85.83-1.63,1.46-2.27,1.38-1.14,2.25-1.5c.87-.36,1.84-.54,2.9-.54s1.98.17,2.9.52c.91.35,1.71.89,2.4,1.63l-1.82,1.6Z"/>
        <path class="cls-1" d="M127.6,271.21c.71-.72,1.54-1.25,2.51-1.59.97-.34,1.96-.51,2.96-.51,2.04,0,3.51.48,4.41,1.43.9.95,1.35,2.4,1.35,4.34v5.85c0,.39.02.79.06,1.21s.09.8.15,1.15h-2.21c-.08-.31-.12-.66-.13-1.03-.01-.38-.01-.71-.01-1h-.06c-.45.7-1.05,1.27-1.81,1.72-.75.45-1.66.67-2.72.67-.71,0-1.37-.09-1.98-.26-.62-.17-1.16-.43-1.62-.77-.46-.34-.83-.76-1.1-1.27-.27-.5-.41-1.09-.41-1.75,0-1.12.29-2.01.88-2.65.59-.64,1.32-1.12,2.19-1.43.87-.31,1.81-.5,2.82-.58,1.01-.08,1.94-.12,2.78-.12h.88v-.41c0-.99-.3-1.74-.9-2.24-.6-.5-1.44-.76-2.51-.76-.75,0-1.48.12-2.19.36-.72.24-1.35.62-1.9,1.12l-1.44-1.48ZM134.25,276.54c-1.47,0-2.64.2-3.5.61s-1.29,1.08-1.29,2.01c0,.85.29,1.46.87,1.82.58.36,1.3.54,2.16.54.67,0,1.25-.11,1.75-.33s.92-.52,1.25-.89.59-.8.76-1.3c.18-.49.27-1.02.29-1.59v-.87h-2.29Z"/>
        <path class="cls-1" d="M154.18,271.39h-4.06v6.81c0,.45,0,.86.03,1.24.02.38.1.71.23.99.14.28.34.5.62.67.27.17.67.25,1.18.25.33,0,.68-.04,1.03-.12.35-.08.69-.19,1-.35l.09,2.07c-.39.17-.83.3-1.31.38-.48.08-.94.12-1.37.12-.82,0-1.48-.11-1.97-.32-.49-.21-.87-.51-1.15-.9-.28-.39-.46-.87-.54-1.44-.09-.57-.13-1.21-.13-1.91v-7.48h-3v-1.92h3v-3.87h2.29v3.87h4.06v1.92Z"/>
        <path class="cls-1" d="M172.91,280.61c-.82,1.05-1.72,1.78-2.71,2.2-.98.42-2.12.63-3.41.63-1.08,0-2.05-.19-2.91-.57-.86-.38-1.59-.89-2.19-1.53-.6-.64-1.06-1.4-1.38-2.27s-.49-1.8-.49-2.79c0-1.05.18-2.01.53-2.9.35-.88.84-1.64,1.47-2.27.63-.63,1.37-1.12,2.23-1.47.86-.35,1.8-.52,2.82-.52.96,0,1.84.16,2.65.48.8.32,1.49.79,2.07,1.4.58.61,1.02,1.36,1.34,2.24.31.88.47,1.89.47,3.01v.73h-11.11c.04.58.18,1.14.43,1.67.24.53.56,1,.96,1.4.39.4.85.71,1.38.95.53.23,1.11.35,1.73.35,1,0,1.84-.17,2.53-.52.69-.35,1.3-.86,1.85-1.54l1.73,1.34ZM170.94,275.05c-.04-1.16-.42-2.1-1.15-2.79-.73-.7-1.72-1.05-3-1.05s-2.3.35-3.09,1.05c-.78.7-1.25,1.63-1.41,2.79h8.64Z"/>
        <path class="cls-1" d="M180.58,272.7c0-.62-.02-1.2-.06-1.75-.04-.54-.06-1.04-.06-1.49h2.18c0,.37,0,.74.03,1.11.02.37.03.75.03,1.13h.06c.16-.33.38-.65.66-.96.28-.31.62-.59,1.01-.83.39-.24.83-.44,1.32-.58s1.02-.22,1.59-.22c.16,0,.31,0,.47.03.16.02.31.06.47.12l-.15,2.3c-.39-.12-.8-.17-1.24-.17-1.41,0-2.44.45-3.07,1.35-.64.9-.96,2.14-.96,3.71v6.64h-2.29v-10.39Z"/>
        <path class="cls-1" d="M194.22,264.14c0-.45.16-.83.49-1.16s.72-.5,1.19-.5.87.17,1.19.5.48.72.48,1.16c0,.49-.16.88-.47,1.19-.31.31-.72.47-1.21.47s-.89-.16-1.21-.47c-.31-.31-.47-.71-.47-1.19ZM194.75,269.46h2.29v13.62h-2.29v-13.62Z"/>
        <path class="cls-1" d="M205.22,272.7c0-.62-.02-1.2-.06-1.75-.04-.54-.06-1.04-.06-1.49h2.18c0,.37,0,.74.03,1.11.02.37.03.75.03,1.13h.06c.16-.33.38-.65.66-.96.28-.31.62-.59,1.01-.83.39-.24.83-.44,1.32-.58s1.02-.22,1.59-.22c.9,0,1.68.14,2.34.41.66.27,1.2.65,1.63,1.13.43.49.75,1.07.96,1.76.21.69.31,1.44.31,2.25v8.41h-2.29v-8.18c0-1.14-.25-2.05-.76-2.71-.51-.66-1.3-.99-2.38-.99-.75,0-1.39.13-1.93.38-.54.25-.98.61-1.32,1.08s-.6,1.02-.76,1.66c-.17.64-.25,1.35-.25,2.12v6.64h-2.29v-10.39Z"/>
        <path class="cls-1" d="M238.91,282.48c0,2.48-.64,4.37-1.93,5.66-1.28,1.29-3.14,1.94-5.57,1.94-1.35,0-2.57-.19-3.66-.58-1.09-.39-2.12-1.06-3.1-2.01l1.65-1.86c.72.78,1.49,1.36,2.31,1.76s1.75.6,2.81.6,1.87-.15,2.54-.45c.68-.3,1.21-.71,1.6-1.22.39-.51.67-1.1.82-1.76s.24-1.35.24-2.07v-1.75h-.06c-.55.87-1.26,1.51-2.15,1.92s-1.78.61-2.7.61c-1.08,0-2.07-.17-2.97-.52-.9-.35-1.68-.83-2.32-1.46-.65-.62-1.15-1.36-1.5-2.21-.35-.85-.53-1.79-.53-2.79,0-1.11.18-2.11.53-3s.85-1.64,1.48-2.26,1.41-1.08,2.31-1.41c.9-.33,1.9-.49,3-.49.47,0,.94.05,1.41.16.47.11.93.27,1.37.49.44.22.84.5,1.19.84.35.34.65.73.88,1.18h.06v-2.33h2.29v13.01ZM226.86,276.28c0,.7.13,1.34.38,1.94s.6,1.11,1.04,1.54c.44.44.96.78,1.54,1.03.59.25,1.21.38,1.88.38.78,0,1.48-.14,2.09-.41s1.12-.64,1.54-1.09c.42-.46.74-.98.96-1.57s.32-1.22.32-1.88c0-.74-.12-1.41-.35-2.02s-.57-1.14-1-1.59c-.43-.45-.95-.79-1.56-1.03-.61-.24-1.27-.36-2-.36s-1.39.13-1.99.39-1.11.62-1.53,1.08c-.42.46-.75.99-.99,1.6-.23.61-.35,1.28-.35,1.99Z"/>
      </g>
    </g>
  </g>
</svg>